<svg t="1725656427965" class="icon" viewBox="0 0 1024 1024" version="1.1" xmlns="http://www.w3.org/2000/svg" p-id="4237" width="200" height="200"><path d="M814.530133 898.857567l-621.810413-0.631572c-71.467345-6.758418-127.564711-67.101305-127.564711-135.196936L65.155009 334.72245c0-82.827243 63.217938-146.045181 140.942641-146.045181l608.428485 0c77.706115 0 140.903068 63.217938 140.903068 142.975263l0 428.28962C955.4332 835.614645 892.215262 898.857567 814.530133 898.857567L814.530133 898.857567zM206.077264 246.118324c-46.051577 0-83.522572 37.452407-83.522572 88.620715l0 428.290019c0 40.935046 37.470995 78.412636 83.522572 78.412636l608.452869 0c46.031591 0 83.487196-37.47759 83.487196-81.482555L898.017328 331.652532c0-48.098789-37.455405-85.559191-83.487196-85.559191L206.077264 246.093341 206.077264 246.118324zM666.001235 328.603599c-21.131673 0-33.165514-17.146375-33.165514-38.282445L632.835721 159.370939c0-21.127675 12.033841-38.277448 33.165514-38.277448 21.127476 0 33.160517 17.149772 33.160517 38.277448l0 130.942421C699.161752 311.457424 687.149697 328.603599 666.001235 328.603599L666.001235 328.603599zM349.75545 328.603599c-21.131673 0-33.162916-17.146375-33.162916-38.282445L316.592534 159.370939c0-21.127675 12.031243-38.277448 33.162916-38.277448 21.128075 0 33.162916 17.149772 33.162916 38.277448l0 130.942421C382.918365 311.457424 370.910107 328.603599 349.75545 328.603599L349.75545 328.603599zM530.688377 741.695522l-36.539626 0c-21.128075 0-38.280046-14.080453-38.280046-35.212126 0-21.127675 17.151771-35.20713 38.280046-35.20713l36.539626 0c21.127675 0 38.278047 14.079454 38.278047 35.20713C568.966225 727.615069 551.815853 741.695522 530.688377 741.695522L530.688377 741.695522zM917.935824 457.256572 125.098767 457.256572c-21.131673 0-38.280046-12.033241-38.280046-33.161916 0-21.131673 17.148373-33.160917 38.280046-33.160917l792.858042 0c21.127476 0 38.278047 12.029244 38.278047 33.160917C956.234657 445.223331 939.089281 457.256572 917.935824 457.256572L917.935824 457.256572zM333.260633 621.399483l-36.538227 0c-21.128075 0-38.279447-14.080453-38.279447-35.20693 0-21.132672 17.151371-33.162516 38.279447-33.162516l36.538227 0c21.127675 0 38.279447 12.029844 38.279447 33.162516C371.54008 607.324026 354.388309 621.399483 333.260633 621.399483L333.260633 621.399483zM530.688377 621.399483l-36.539626 0c-21.128075 0-38.280046-14.080453-38.280046-35.20693 0-21.132672 17.151771-33.162516 38.280046-33.162516l36.539626 0c21.127675 0 38.278047 12.029844 38.278047 33.162516C568.966225 607.324026 551.815853 621.399483 530.688377 621.399483L530.688377 621.399483zM730.302439 621.399483l-36.537228 0c-21.131673 0-38.277048-14.080453-38.277048-35.20693 0-21.132672 17.145375-33.162516 38.277048-33.162516l36.537228 0c21.131473 0 38.277048 12.029844 38.277048 33.162516C768.579487 607.324026 751.454098 621.399483 730.302439 621.399483L730.302439 621.399483zM333.260633 741.695522l-36.538227 0c-21.128075 0-38.279447-14.080453-38.279447-35.212126 0-21.127675 17.151371-35.20713 38.279447-35.20713l36.538227 0c21.127675 0 38.279447 14.079454 38.279447 35.20713C371.54008 727.615069 354.388309 741.695522 333.260633 741.695522L333.260633 741.695522zM730.302439 741.695522l-36.537228 0c-21.131673 0-38.277048-14.080453-38.277048-35.212126 0-21.127675 17.145375-35.20713 38.277048-35.20713l36.537228 0c21.131473 0 38.277048 14.079454 38.277048 35.20713C768.579487 727.615069 751.454098 741.695522 730.302439 741.695522L730.302439 741.695522z" fill="#272636" p-id="4238"></path></svg>